<?xml version="1.0" standalone="no"?>
<!DOCTYPE svg PUBLIC "-//W3C//DTD SVG 20010904//EN"
 "http://www.w3.org/TR/2001/REC-SVG-20010904/DTD/svg10.dtd">
<svg version="1.0" xmlns="http://www.w3.org/2000/svg"
 width="512.000000pt" height="512.000000pt" viewBox="0 0 512.000000 512.000000"
 preserveAspectRatio="xMidYMid meet">
<metadata>
Created by potrace 1.11, written by Peter Selinger 2001-2013
</metadata>
<g transform="translate(0.000000,512.000000) scale(0.100000,-0.100000)"
fill="#000000" stroke="none">
<path d="M2350 5114 c-264 -30 -476 -77 -665 -146 -800 -294 -1404 -963 -1608
-1783 -59 -236 -72 -348 -72 -625 0 -277 13 -389 72 -625 227 -911 947 -1631
1858 -1858 243 -61 346 -72 645 -71 240 1 279 3 410 27 1084 195 1902 1013
2097 2097 24 131 26 170 27 410 1 299 -10 402 -71 645 -250 1001 -1081 1753
-2113 1910 -100 16 -499 28 -580 19z m354 -674 c65 -33 126 -94 156 -155 35
-71 40 -189 11 -266 -101 -269 -483 -284 -612 -24 -20 43 -24 64 -24 145 0 84
3 101 27 145 46 83 92 126 174 161 80 33 195 31 268 -6z m16 -705 c213 -55
393 -213 465 -408 l18 -48 -39 -40 c-204 -212 -559 -298 -852 -207 -137 42
-271 120 -356 207 l-39 40 23 56 c79 194 245 340 450 396 84 22 251 24 330 4z"/>
</g>
</svg>
